PathFileType	4	(X/Y/Z)	OpenSim_Sub01_CSBaseline_Magnet.trc
DataRate	CameraRate	NumFrames	NumMarkers	Units	OrigDataRate	OrigDataStartFrame	OrigNumFrames
100	100	23	8	m	100	3719	5950
Frame#	Time	torso_imu_offset_imu	pelvis_imu_offset_imu	tibia_r_imu_offset_imu	femur_r_imu_offset_imu	tibia_l_imu_offset_imu	femur_l_imu_offset_imu	toes_r_imu_offset_imu	toes_l_imu_offset_imu
				X1	Y1	Z1	X2	Y2	Z2	X3	Y3	Z3	X4	Y4	Z4	X5	Y5	Z5	X6	Y6	Z6	X7	Y7	Z7	X8		Y8	Z8	

3719	37.18000000	-0.93513708	-0.03405468	0.08120872	-0.70392690	0.05166753	-0.62297832	-0.53508160	-0.60593732	0.03900530	-0.62562366	-0.51821460	0.13556594	-0.65126476	0.46832381	0.06614082	-0.50971616	-0.23074210	0.15483023	-0.71145168	-0.15380839	-0.33042096	-0.68230959	-0.09764730	-0.38440841
3720	37.19000000	-0.93288244	-0.03289380	0.08116999	-0.70500739	0.05237887	-0.62098178	-0.52943734	-0.60890918	0.03198463	-0.62200919	-0.52207660	0.13769128	-0.66873766	0.44349674	0.07412974	-0.51372826	-0.22474192	0.15651060	-0.71111148	-0.15489741	-0.32805809	-0.66686023	-0.10545626	-0.41194032
3721	37.20000000	-0.93155715	-0.03151547	0.08136279	-0.70693716	0.05215562	-0.61803173	-0.52491843	-0.61305127	0.02691228	-0.61849074	-0.52765462	0.13911131	-0.68195250	0.41802000	0.08175734	-0.51489818	-0.21776442	0.15869111	-0.71068271	-0.15457581	-0.32630796	-0.65177372	-0.11633969	-0.43807369
3722	37.21000000	-0.93229285	-0.03098819	0.08193225	-0.70856840	0.05169402	-0.61497788	-0.52238033	-0.61893100	0.02574135	-0.61563461	-0.53482656	0.13953644	-0.69120954	0.38995682	0.08822214	-0.51083665	-0.21022437	0.16139141	-0.71126660	-0.15281632	-0.32408393	-0.63676528	-0.13110276	-0.46064649
3723	37.22000000	-0.93360608	-0.03142283	0.08303652	-0.70898449	0.05190863	-0.61240921	-0.51988530	-0.62507549	0.02598900	-0.61308317	-0.54145005	0.13959165	-0.69940853	0.36133748	0.09385741	-0.50566148	-0.20352206	0.16408079	-0.71248693	-0.15112015	-0.32024336	-0.62201465	-0.14515581	-0.47960296
3724	37.23000000	-0.93381158	-0.03276316	0.08473900	-0.70749072	0.05362167	-0.61081594	-0.51529970	-0.62996317	0.02483095	-0.61040877	-0.54533677	0.13998036	-0.70942516	0.33473337	0.09915011	-0.50391623	-0.19899022	0.16621527	-0.71377763	-0.15105884	-0.31382712	-0.60780369	-0.15379136	-0.49518282
3725	37.24000000	-0.93279327	-0.03456566	0.08610663	-0.70536069	0.05639796	-0.61003284	-0.50836895	-0.63441997	0.02211455	-0.60775149	-0.54664616	0.14093897	-0.72025568	0.31276068	0.10458914	-0.50545081	-0.19588761	0.16788252	-0.71467650	-0.15279490	-0.30584909	-0.59481959	-0.15862091	-0.50773344
3726	37.25000000	-0.93136004	-0.03615976	0.08562379	-0.70502352	0.05906271	-0.60950855	-0.49994616	-0.64064957	0.01926124	-0.60558455	-0.54692110	0.14242667	-0.72861334	0.29805440	0.11066121	-0.50735148	-0.19225524	0.16954167	-0.71478515	-0.15565775	-0.29848057	-0.58398941	-0.16497092	-0.51766397
3727	37.26000000	-0.93016767	-0.03716845	0.08287508	-0.70772516	0.06091421	-0.60881383	-0.49072369	-0.64935748	0.01728583	-0.60400346	-0.54738967	0.14406222	-0.73238709	0.29162418	0.11715541	-0.50781575	-0.18734455	0.17140904	-0.71424901	-0.15856925	-0.29251178	-0.57639802	-0.17547088	-0.52500267
3728	37.27000000	-0.92950365	-0.03787635	0.07991688	-0.71203829	0.06232757	-0.60780296	-0.48100312	-0.65786665	0.01625035	-0.60225136	-0.54853757	0.14471259	-0.73215497	0.29085267	0.12230435	-0.50760029	-0.18314282	0.17314852	-0.71442498	-0.15956587	-0.28561803	-0.57347553	-0.18662543	-0.52892621
3729	37.28000000	-0.92953366	-0.03867501	0.07889240	-0.71618609	0.06383907	-0.60638286	-0.47101966	-0.66340362	0.01600843	-0.59959227	-0.55067389	0.14334841	-0.72891356	0.29289742	0.12434586	-0.50773676	-0.18182209	0.17444006	-0.71660428	-0.15688774	-0.27535908	-0.57649689	-0.19432033	-0.52854245
3730	37.29000000	-0.92968022	-0.04013570	0.07938849	-0.71851831	0.06614472	-0.60460781	-0.46086897	-0.66692470	0.01559278	-0.59669595	-0.55332160	0.14106025	-0.72422418	0.29765872	0.12374570	-0.50852068	-0.18363970	0.17590132	-0.71970750	-0.15211403	-0.26245224	-0.58465307	-0.19660735	-0.52343846
3731	37.30000000	-0.92893184	-0.04293196	0.07948673	-0.71746658	0.07003077	-0.60261940	-0.45056456	-0.67157995	0.01355636	-0.59505689	-0.55554164	0.14018341	-0.71997762	0.30664755	0.12228165	-0.50981190	-0.18772288	0.17869835	-0.72126383	-0.14878626	-0.24947110	-0.59590858	-0.19282160	-0.51348609
3732	37.31000000	-0.92719736	-0.04693879	0.07785886	-0.71300216	0.07544278	-0.60065480	-0.44016360	-0.67915842	0.00941221	-0.59519371	-0.55677012	0.14180885	-0.71729209	0.31983401	0.12125159	-0.51117145	-0.19305553	0.18298549	-0.72029233	-0.14887038	-0.23761940	-0.60884285	-0.18348054	-0.49900516
3733	37.32000000	-0.92645178	-0.05024657	0.07453674	-0.70852919	0.08044782	-0.59916176	-0.42982296	-0.68834912	0.00482930	-0.59542383	-0.55729347	0.14421511	-0.71555246	0.33370374	0.12084470	-0.51150612	-0.19833444	0.18664386	-0.71917650	-0.15076027	-0.22499091	-0.62344273	-0.17170269	-0.48130683
3734	37.33000000	-0.92861015	-0.05099620	0.06978017	-0.70754905	0.08312249	-0.59850976	-0.41962611	-0.69750900	0.00158068	-0.59405907	-0.55748475	0.14541794	-0.71387188	0.34465221	0.12112020	-0.50980337	-0.20222849	0.18761062	-0.72044544	-0.15253969	-0.20954977	-0.63972184	-0.16067386	-0.46182171
3735	37.34000000	-0.93208257	-0.05034307	0.06430217	-0.70977136	0.08426578	-0.59796603	-0.40875951	-0.70589788	-0.00049818	-0.59242770	-0.55742325	0.14464861	-0.71097950	0.35301205	0.12234446	-0.50679725	-0.20351943	0.18757694	-0.72343154	-0.15408009	-0.19226608	-0.65600393	-0.15064108	-0.44182929
3736	37.35000000	-0.93322150	-0.05121278	0.05908103	-0.71267218	0.08627596	-0.59615292	-0.39588404	-0.71330965	-0.00271450	-0.59362807	-0.55701447	0.14185713	-0.70538357	0.36143356	0.12490387	-0.50424869	-0.20106283	0.19043725	-0.72558846	-0.15630497	-0.17587434	-0.66962088	-0.14012418	-0.42252159
3737	37.36000000	-0.93048454	-0.05481154	0.05465371	-0.71441611	0.09013992	-0.59282730	-0.38042640	-0.71986749	-0.00632126	-0.59877131	-0.55605162	0.13736525	-0.69678416	0.37154497	0.12872989	-0.50318420	-0.19524398	0.19770431	-0.72586135	-0.15959920	-0.16123141	-0.67896150	-0.12901098	-0.40546475
3738	37.37000000	-0.92708589	-0.05845816	0.05056483	-0.71476840	0.09364919	-0.59029603	-0.36353710	-0.72641384	-0.01241749	-0.60448352	-0.55408252	0.13230337	-0.68754694	0.38262708	0.13273545	-0.50296207	-0.18985922	0.20551324	-0.72657742	-0.16311544	-0.14495371	-0.68480142	-0.12029138	-0.39306204
3739	37.38000000	-0.92653256	-0.05932869	0.04632634	-0.71380320	0.09444681	-0.59082194	-0.34650128	-0.73377063	-0.02189050	-0.60728188	-0.55065879	0.12776300	-0.68014957	0.39364660	0.13589485	-0.50273788	-0.18877082	0.20972690	-0.73019447	-0.16604365	-0.12333339	-0.68825563	-0.11695836	-0.38742324
3740	37.39000000	-0.92871036	-0.05855567	0.04249946	-0.71254769	0.09310643	-0.59265162	-0.32958635	-0.74154332	-0.03365699	-0.60882452	-0.54571438	0.12330485	-0.67450191	0.40360654	0.13923910	-0.50190529	-0.19175672	0.21090936	-0.73579385	-0.16968023	-0.09523809	-0.69060822	-0.11770323	-0.38645899
3741	37.40000000	-0.93137170	-0.05959641	0.04025984	-0.71258754	0.09192736	-0.59167364	-0.31246092	-0.74862148	-0.04547575	-0.61378911	-0.53940960	0.11758928	-0.66900247	0.41153572	0.14500381	-0.50000178	-0.19618978	0.21239196	-0.74046778	-0.17655568	-0.06105702	-0.69323870	-0.11868778	-0.38561067
